<svg id="svg8" height="32" viewBox="0 0 8.4666665 8.4666669" width="32" xmlns="http://www.w3.org/2000/svg" xmlns:cc="http://creativecommons.org/ns#" xmlns:dc="http://purl.org/dc/elements/1.1/" xmlns:inkscape="http://www.inkscape.org/namespaces/inkscape" xmlns:rdf="http://www.w3.org/1999/02/22-rdf-syntax-ns#" xmlns:sodipodi="http://sodipodi.sourceforge.net/DTD/sodipodi-0.dtd" xmlns:svg="http://www.w3.org/2000/svg"><g id="layer1" fill="none" stroke="#000" stroke-width=".265" transform="translate(0 -288.533)"><g stroke-linejoin="round"><path id="path7563" d="m2.4473956 294.75104v.59531" stroke-linecap="round"/><path id="path7565" d="m2.9765623 295.2802v.52917" stroke-linecap="round"/><path id="path7567" d="m6.5484374 292.36979v1.44123a.26458334.26458336 0 0 0 .044437.14677l.043418.0651a.26458334.26458336 0 0 1 .044437.14676v.59725a.26458334.26458336 0 0 1 -.085796.19505l-1.5017036 1.37655v-1.45521l.9260417-.72761v-2.18281h-.9714362a.52916668.52916672 0 0 0 -.3741772.15503l-.3741791.37418-.3741764-.37418a.52916668.52916672 0 0 0 -.3741764-.15499h-.9714389v2.18281l.9260417.72761v1.45521l-1.501701-1.37655a.26458334.26458336 0 0 1 -.085799-.19505v-.59725a.26458334.26458336 0 0 1 .044437-.14676l.043418-.0651a.26458334.26458336 0 0 0 .044437-.14677v-1.44123"/><path id="path7577" d="m6.1515624 294.75104v.59531" stroke-linecap="round"/><path id="path7579" d="m5.6223957 295.2802v.52917" stroke-linecap="round"/><path id="path7586" d="m2.9783112 292.50136.6579579.26459" stroke-linecap="round"/><path id="path7588" d="m3.1768837 293.09739h.26094" stroke-linecap="round"/><path id="path7595" d="m5.6206442 292.50136-.6579579.26459" stroke-linecap="round"/><path id="path7599" d="m5.4220717 293.09739h-.26094" stroke-linecap="round"/><path id="path7607" d="m4.0348957 294.81718h.5291667" stroke-linecap="round"/><path id="path7609" d="m4.2333332 295.2802h.1322917" stroke-linecap="round"/><path id="path7613" d="m3.505729 296.0666.3204501.16023a1.0583334 1.0583334 0 0 0 .9466025 0l.3204474-.16023"/></g><path id="path7621" d="m4.299479 295.87552v.46302"/><path id="path7623" d="m3.8364582 294.08958.1319106-.13229.3297741.26458.3297767-.26458.131908.13229" stroke-linecap="round" stroke-linejoin="round"/><path id="path7625" d="m2.5796873 292.43593-1.3870887-.34676a.26458334.26458336 0 0 1 -.20041133-.2567v-.32258" stroke-linejoin="round"/><path id="path7627" d="m2.5796873 291.97291-1.78796424-.47678a.26458334.26458336 0 0 1 -.1964108-.25566v-.32589" stroke-linecap="round" stroke-linejoin="round"/><path id="path7649" d="m6.4161457 291.31145.1832108-.44495a.26458334.26458336 0 0 1 .1699974-.15308l1.5650211-.4603v.33046a.26458334.26458336 0 0 1 -.1908149.25411l-1.859706.53991h-3.9687501l-1.85970605-.53991a.26458334.26458336 0 0 1 -.19081486-.25411v-.33046l1.56502101.4603a.26458334.26458336 0 0 1 .1699975.15308l.1832107.44495" stroke-linecap="round" stroke-linejoin="round"/><path id="path7636" d="m6.0854166 292.43593 1.1971655-.34205a.26458339.26458341 0 0 0 .191897-.2544v-.32959" stroke-linejoin="round"/><path id="path7638" d="m6.0854166 291.97291 1.5965197-.47305a.26458334.26458336 0 0 0 .1894178-.25368v-.3316" stroke-linejoin="round"/><path id="rect7646" d="m6.1515624 291.3776v-.19844a1.5875001 1.5875002 0 0 0 -1.5875-1.5875v-.13229a.26458334.26458336 0 0 0 -.2645834-.26458.26458334.26458336 0 0 0 -.2645833.26458v.13229a1.5874996 1.5874997 0 0 0 -1.5875001 1.5875v.19844" stroke-linecap="round" stroke-linejoin="round"/></g></svg>