<svg id="Lineal" viewBox="0 0 512 512" xmlns="http://www.w3.org/2000/svg"><g id="_14._Black_panther_mask" data-name="14. Black panther mask"><path d="m458.059 236.024-23.08-191.559c-4-33.21-43.957-48.01-68.622-25.4l-38.257 35.077h-144.195l-38.262-35.074c-24.66-22.606-64.62-7.823-68.622 25.4l-23.08 191.56a130.958 130.958 0 0 0 11.5 71.414l56.82 120.972a131.613 131.613 0 0 0 118.659 75.362h30.168a131.613 131.613 0 0 0 118.659-75.362l56.82-120.972a130.96 130.96 0 0 0 11.492-71.418zm-202.059-55.034-56.017-36.167-4.907-58.681h44.924v46.045a16 16 0 0 0 32 0v-46.045h44.924l-4.907 58.681zm-147.209-132.697a9.117 9.117 0 0 1 15.229-5.636l38.239 35.052 6.491 77.621a16 16 0 0 0 7.266 12.108l63.984 41.312v23.565a16 16 0 0 0 32 0v-23.565l63.984-41.312a16 16 0 0 0 7.266-12.108l6.491-77.621 38.239-35.053a9.121 9.121 0 0 1 15.229 5.637l23.077 191.535-154 73.046h-32.576l-154-73.046zm18.143 314.807 50.615 27.419-16.743 40.437c-7.256-9.94-7.511-11.735-33.872-67.856zm58.641 91.684 27.056-65.345a16 16 0 0 0 -7.162-20.189l-101.463-54.966c-9.935-21.151-12.939-26.5-15.871-37.89l141.115 66.936c4.342 2.059 3.548 1.544 46.643 1.544 5.146 0-5.8 4.458 147.972-68.48-2.868 11.139-5.553 15.923-15.871 37.89l-101.463 54.964a16 16 0 0 0 -7.162 20.189l27.056 65.345a99.119 99.119 0 0 1 -55.341 16.991c-31.296 0-55.941 2.927-85.509-16.991zm165.619-23.828-16.743-40.437 50.615-27.419c-26.361 56.121-26.616 57.917-33.872 67.854zm-199.534-204.896a16 16 0 0 1 21.251-7.773l36.173 16.8a16 16 0 0 1 -13.479 29.023l-36.172-16.8a16 16 0 0 1 -7.773-21.25zm151.256 9.025 36.173-16.8a16 16 0 0 1 13.478 29.024c-39.238 18.221-38.211 18.29-42.9 18.29-17.031.001-22.267-23.308-6.751-30.514z"/></g></svg>