<svg viewBox="0 0 24 24" xmlns="http://www.w3.org/2000/svg"><g id="Captain_America" fill="none" stroke="#303c42" stroke-linecap="round" stroke-linejoin="round" data-name="Captain America"><path d="m13 13s2.47-1.5 4-1.5a1.44 1.44 0 0 1 1.5 1.5s-.34 2-1.5 2a5.44 5.44 0 0 1 -4-2z"/><path d="m10.5 10.5 1.5-4.5 1.5 4.5"/><path d="m10.83 9.5h2.34"/><path d="m18.81 3.65c-1.4.94-1.31 5.95-1.31 7.91"/><path d="m19 15.15c0 2.63-2.35 7.1-4.5 7.66"/><path d="m12 .5c-1.79 0-8.5 2.5-8.5 6.5s.38 8 2.5 9 4.75-1.5 6-1.5 3.88 2.5 6 1.5 2.5-5 2.5-9-6.71-6.5-8.5-6.5z"/><path d="m11 13s-2.47-1.5-4-1.5a1.44 1.44 0 0 0 -1.5 1.5s.34 2 1.5 2a5.44 5.44 0 0 0 4-2z"/><path d="m5.19 3.65c1.4.94 1.31 5.95 1.31 7.91"/><path d="m5 15.15c0 2.63 2.35 7.1 4.5 7.66"/><ellipse cx="12" cy="23" rx="2.5" ry=".5"/><path d="m11 19.5h2"/></g></svg>