<svg viewBox="0 0 24 24" xmlns="http://www.w3.org/2000/svg"><g id="Deadpool" fill="none" stroke="#303c42" stroke-linecap="round" stroke-linejoin="round"><path d="m6.5 5.5s2.6.65 3 1.5a25.84 25.84 0 0 1 1 5.5 5.49 5.49 0 0 1 -3 4c-.92-1.56-2-3.19-2-5a39.44 39.44 0 0 1 1-6z"/><path d="m10.5 12.5c0 .55-1.4 1-2.5 1s-1.5-.45-1.5-1 .4-1 1.5-1 2.5.45 2.5 1z"/><path d="m7.5 16.3.5 5.02"/><path d="m5.5 2a20.14 20.14 0 0 1 1 3.5"/><path d="m12 .5a14.43 14.43 0 0 1 6.5 1.5s2 3.72 2 6.5v3.5a16.94 16.94 0 0 1 -2.5 7c-1.53 2-3.81 4.5-6 4.5s-4.47-2.5-6-4.5a16.94 16.94 0 0 1 -2.5-7v-3.5c0-2.78 2-6.5 2-6.5a14.43 14.43 0 0 1 6.5-1.5z"/><path d="m17.5 5.5s-2.6.65-3 1.5a25.84 25.84 0 0 0 -1 5.5 5.49 5.49 0 0 0 3 4c.92-1.56 2-3.19 2-5a39.44 39.44 0 0 0 -1-6z"/><path d="m13.5 12.5c0 .55 1.4 1 2.5 1s1.5-.45 1.5-1-.4-1-1.5-1-2.5.45-2.5 1z"/><path d="m16.5 16.3-.5 5.02"/><path d="m18.5 2a20.14 20.14 0 0 0 -1 3.5"/></g></svg>