<svg viewBox="0 0 24 24" xmlns="http://www.w3.org/2000/svg"><g id="Wulverine" fill="none" stroke="#303c42" stroke-linecap="round" stroke-linejoin="round"><path d="m10 14.5c0 .55-.4.5-1.5.5s-2.5-.95-2.5-1.5.4-.5 1.5-.5 2.5.95 2.5 1.5z"/><path d="m10.5 17.5h3"/><path d="m5 15.5a10.06 10.06 0 0 1 5.5 2 7.22 7.22 0 0 0 -.5-2.5v-1.5s-5.21-3.37-8.5-13v7.5c0 2.33 3.5 6.33 3.5 11l2 3s-.17-4.12-2-6.5z"/><path d="m17.26 19.89c-.8 1.29-1.26 3.61-5.26 3.61s-4.46-2.32-5.26-3.61"/><path d="m14 14.5c0 .55.4.5 1.5.5s2.5-.95 2.5-1.5-.4-.5-1.5-.5-2.5.95-2.5 1.5z"/><path d="m19 15.5a10.06 10.06 0 0 0 -5.5 2 7.22 7.22 0 0 1 .5-2.5v-1.5s5.21-3.37 8.5-13v7.5c0 2.33-3.5 6.33-3.5 11l-2 3s.17-4.12 2-6.5z"/><path d="m19.49 7.1c-.21-3.68-3.76-5.6-7.49-5.6s-7.28 1.92-7.49 5.6"/></g></svg>