<svg viewBox="0 0 24 24" xmlns="http://www.w3.org/2000/svg"><g id="Thor" fill="none" stroke="#303c42" stroke-linecap="round" stroke-linejoin="round"><circle id="_Path_" cx="8.5" cy="14.5" r=".5"/><circle id="_Path_2" cx="15.5" cy="14.5" r=".5"/><path d="m12 2.5a7.57 7.57 0 0 1 7 8c0 7.25-1.5 7-1.5 7l-1 6a30.85 30.85 0 0 0 5-17 9.85 9.85 0 0 0 -2-6s1 9.33-.61 13"/><path d="m19 12.53s-.92-1.53-2-1.53-5 3.5-5 3.5l2.5-5 4-2.23"/><path d="m12 23.5a5.93 5.93 0 0 0 5.18-4.05"/><path d="m15.09 3.43-.59 6.07"/><path d="m12 2.5a7.57 7.57 0 0 0 -7 8c0 7.25 1.5 7 1.5 7l1 6a30.85 30.85 0 0 1 -5-17 9.85 9.85 0 0 1 2-6s-1 9.33.61 13"/><path d="m5 12.53s.92-1.53 2-1.53 5 3.5 5 3.5l-2.5-5-4-2.23"/><path d="m12 23.5a5.93 5.93 0 0 1 -5.18-4.05"/><path d="m8.91 3.43.59 6.07"/></g></svg>