<svg viewBox="0 0 24 24" xmlns="http://www.w3.org/2000/svg"><g id="Ant_Man" fill="none" stroke="#303c42" stroke-linecap="round" stroke-linejoin="round" data-name="Ant Man"><path d="m13 11.5.3.91a2 2 0 0 0 .7 1l1 .73a2 2 0 0 0 1.2.4h.5a2 2 0 0 0 1.41-.59l.12-.12a1 1 0 0 0 .29-.71v-1.12a1 1 0 0 0 -.49-.86 4.33 4.33 0 0 0 -2-.68 8.49 8.49 0 0 0 -3.03 1.04z"/><path d="m16 10.5 1-8.78"/><ellipse cx="16" cy="20.5" rx="1.5" ry="2"/><circle cx="12" cy="21" r="2.5"/><path d="m20.5 4.5-.35 4.5 1.35 1v6.5c0 1.25-.29 3-4 4"/><path d="m7.21 18.8s-2.08-2.67-3.21-3.8-.58-1.08 0-7.5 5.17-7 8-7 7.42.58 8 7 1.13 6.38 0 7.5-3.21 3.8-3.21 3.8"/><path d="m11 11.5-.3.91a2 2 0 0 1 -.7 1l-1 .69a2 2 0 0 1 -1.2.4h-.5a2 2 0 0 1 -1.41-.59l-.12-.12a1 1 0 0 1 -.29-.71v-1.08a1 1 0 0 1 .52-.82 4.33 4.33 0 0 1 2-.68 8.49 8.49 0 0 1 3 1z"/><path d="m8 10.5-1-8.78"/><path d="m8 18.5s2.15-2 4-2 4 2 4 2"/><ellipse cx="8" cy="20.5" rx="1.5" ry="2"/><path d="m3.5 4.5.35 4.5-1.35 1v6.5c0 1.25.29 3 4 4"/><path d="m11 20.5v1"/><path d="m13 20.5v1"/><path d="m12 12.5v4"/></g></svg>