<svg id="&#x421;&#x43B;&#x43E;&#x439;_1" viewBox="0 0 128 128" xmlns="http://www.w3.org/2000/svg"><path d="m91.58 30c-1.48-.06-3-.06-4.08-.05v-9.95c0-14.77-6.5-20-25-20-21.12 0-30.68 6.58-33 22.72l-.15 1c-1 6.64-1.87 12.91-1.87 47.25 0 7.57 7.08 18.72 8.93 21.51-.09.65-.25 1.69-.38 2.51a38.07 38.07 0 0 0 -.55 4c0 .69-.94 1.93-1.93 3.25a26.92 26.92 0 0 0 -5 9.2 88.29 88.29 0 0 0 -2.07 11 2 2 0 0 0 1.59 2.2 200.56 200.56 0 0 0 35.43 3.36 133.06 133.06 0 0 0 33.55-4.08 2 2 0 0 0 1.45-1.92c0-.24 0-6-4.24-14a44.85 44.85 0 0 0 -3.26-5c-2-2.85-3.49-4.91-3.49-8 0-4.14.83-5.15 4.11-7.34 5.94-4 9.89-8.64 9.89-18.66v-24.58c-.01-6.75-3.8-14.18-9.93-14.42zm-2.19 54.34c-4.15 2.77-5.89 4.86-5.89 10.66 0 4.33 2 7.22 4.23 10.28a42.6 42.6 0 0 1 3 4.66 31.85 31.85 0 0 1 3.63 10.54 130.29 130.29 0 0 1 -18.23 2.93c-2.92-10.88-7.67-16.41-14.13-16.41-5.06 0-9.24 3.83-11.77 10.8a2 2 0 1 0 3.77 1.36c1.11-3 3.62-8.16 8-8.16s7.7 4.28 10.09 12.72c-2.72.17-5.59.28-8.59.28a199 199 0 0 1 -32.76-2.88 72.23 72.23 0 0 1 1.68-8.57 23.32 23.32 0 0 1 4.34-7.89c1.47-2 2.74-3.63 2.74-5.61 0-.3.23-1.68.41-2.83 4.14 4 6.47 5.78 10.59 5.78 3.12 0 5.13-2.58 6.75-4.65.62-.79 1.78-2.28 2.25-2.35h4.81a14.15 14.15 0 0 1 2 2.33c1.69 2.19 3.59 4.67 6.19 4.67a10.93 10.93 0 0 0 5.89-1.21 2 2 0 1 0 -1.78-3.58 7.15 7.15 0 0 1 -4.11.79c-.66 0-2.24-2.11-3-3.1-1.54-2-3-3.9-5-3.9h-5c-2.37 0-3.91 2-5.41 3.89-1.09 1.46-2.42 3.11-3.59 3.11-3.07 0-4.38-1.21-10.08-6.91l-.37-.37c-2.47-3.59-8.55-13.72-8.55-19.72 0-5.31 0-9.94.06-14a5.11 5.11 0 0 0 3 1 5.75 5.75 0 0 0 5.44-6 5.75 5.75 0 0 0 -5.44-6 5.06 5.06 0 0 0 -2.84.89c.14-5.67.32-9.75.54-12.89h2.24a2 2 0 0 0 0-4h-1.9c.23-2.22.48-3.94.73-5.67l.15-1c.06-.43.13-.86.2-1.28h1.75a2 2 0 0 0 0-4h-.82a17 17 0 0 1 5.89-8.93v33.88a2 2 0 0 0 4 0v-14h3a2 2 0 0 0 0-4h-3v-8h3.21a2 2 0 0 0 0-4h-3.21v-6a1.1 1.1 0 0 0 0-.18 36.39 36.39 0 0 1 11-2.52v37.7a2 2 0 0 0 4 0v-15h3a2 2 0 0 0 0-4h-3v-8h2.88a2 2 0 0 0 0-4h-2.88v-6.94c1 0 2-.06 3-.06a61.64 61.64 0 0 1 8 .45v38.55a2 2 0 0 0 4 0v-15h3a2 2 0 0 0 0-4h-3v-8h2.55a2 2 0 0 0 0-4h-2.55v-6.77c7.45 2.09 9 6.86 9 14.77v25a5.23 5.23 0 0 0 -4.06-2 5.75 5.75 0 0 0 -5.44 6 5.75 5.75 0 0 0 5.44 6 5.23 5.23 0 0 0 4.06-2v4a2 2 0 0 0 4 0v-23h3.92c3.48.13 6.08 5.61 6.08 10.42v4.58h-3a2 2 0 0 0 0 4h3v16c0 .81 0 1.57-.09 2.29a5.42 5.42 0 0 0 -4.85-3.29 6 6 0 0 0 0 12 5.06 5.06 0 0 0 2.15-.49 19.81 19.81 0 0 1 -5.32 4.83zm-56.28-32.34c0-1.08.66-2 1.45-2s1.44.92 1.44 2-.66 2-1.44 2-1.45-.92-1.45-2zm47.78-3c0 1.08-.66 2-1.45 2s-1.44-.92-1.44-2 .66-2 1.44-2 1.45.92 1.45 2zm13.11 25c0 1.08-.66 2-1.44 2s-1.45-.92-1.45-2 .66-2 1.45-2 1.44.92 1.44 2z"/><path d="m61.83 63c-5.6 0-10.16 5.38-10.16 12s4.56 12 10.16 12 10.17-5.38 10.17-12-4.56-12-10.17-12zm0 20c-3.4 0-6.16-3.59-6.16-8s2.76-8 6.16-8 6.17 3.59 6.17 8-2.77 8-6.17 8z"/><path d="m54.89 48a5.75 5.75 0 0 0 -5.45-6 5.75 5.75 0 0 0 -5.44 6 5.75 5.75 0 0 0 5.44 6 5.75 5.75 0 0 0 5.45-6zm-5.45 2c-.78 0-1.44-.92-1.44-2s.66-2 1.44-2 1.45.92 1.45 2-.66 2-1.45 2z"/><path d="m64.44 54a5.75 5.75 0 0 0 5.45-6 5.47 5.47 0 1 0 -10.89 0 5.75 5.75 0 0 0 5.44 6zm0-8c.79 0 1.45.92 1.45 2s-.66 2-1.45 2-1.44-.92-1.44-2 .66-2 1.44-2z"/><path d="m61.83 72a3 3 0 1 0 2.5 3 2.73 2.73 0 0 0 -2.5-3z"/></svg>